<?xml version="1.0" standalone="no"?>
<!DOCTYPE svg PUBLIC "-//W3C//DTD SVG 20010904//EN"
 "http://www.w3.org/TR/2001/REC-SVG-20010904/DTD/svg10.dtd">
<svg version="1.0" xmlns="http://www.w3.org/2000/svg"
 width="300.000000pt" height="300.000000pt" viewBox="0 0 300.000000 300.000000"
 preserveAspectRatio="xMidYMid meet">

<g transform="translate(0.000000,300.000000) scale(0.100000,-0.100000)"
fill="#000000" stroke="none">
<path d="M110 1670 l0 -920 605 0 605 0 0 -165 0 -165 165 0 165 0 0 165 0
165 605 0 605 0 0 920 0 920 -1375 0 -1375 0 0 -920z m2420 0 l0 -590 -440 0
-440 0 0 165 0 165 -165 0 -165 0 0 -165 0 -165 -440 0 -440 0 0 590 0 590
1045 0 1045 0 0 -590z"/>
</g>
</svg>
